<svg width="334.658" height="334.658" xmlns:xlink="http://www.w3.org/1999/xlink" xmlns="http://www.w3.org/2000/svg"><g><circle cx="167.329" cy="167.329" r="167.329" fill="#ad3434"></circle></g><g transform="translate(30,130.6345)" fill-rule="evenodd"><path d="M 32.715 69.19 L 32.715 70.996 L 0 70.996 L 0 69.19 A 20.466 20.466 0 0 0 1.7 69.123 Q 2.547 69.053 3.265 68.906 A 9.043 9.043 0 0 0 4.321 68.628 A 9.073 9.073 0 0 0 5.482 68.155 Q 6.088 67.855 6.558 67.487 A 4.872 4.872 0 0 0 6.958 67.139 A 4.75 4.75 0 0 0 8.252 64.99 A 9.398 9.398 0 0 0 8.587 62.784 A 10.698 10.698 0 0 0 8.594 62.403 L 8.594 9.18 A 5.99 5.99 0 0 0 8.479 8.043 A 8.018 8.018 0 0 0 8.228 7.08 Q 7.861 5.957 6.909 5.005 A 5.897 5.897 0 0 0 5.861 4.182 Q 5.179 3.755 4.297 3.418 A 8.383 8.383 0 0 0 2.914 3.031 Q 1.648 2.783 0 2.783 L 0 0.977 L 32.715 0.977 L 32.715 2.783 A 21.092 21.092 0 0 0 30.987 2.85 Q 30.17 2.917 29.476 3.053 A 9.081 9.081 0 0 0 28.345 3.345 Q 26.66 3.906 25.708 4.859 A 5.045 5.045 0 0 0 24.655 6.366 A 4.763 4.763 0 0 0 24.414 7.031 A 9.398 9.398 0 0 0 24.079 9.238 A 10.698 10.698 0 0 0 24.072 9.619 L 24.072 62.403 A 7.024 7.024 0 0 0 24.152 63.428 Q 24.226 63.931 24.37 64.478 A 11.426 11.426 0 0 0 24.39 64.551 A 5.23 5.23 0 0 0 25.189 66.218 A 6.466 6.466 0 0 0 25.61 66.748 A 5.438 5.438 0 0 0 26.594 67.612 Q 27.093 67.959 27.716 68.256 A 10.526 10.526 0 0 0 28.223 68.482 A 8.066 8.066 0 0 0 29.655 68.913 Q 30.398 69.069 31.273 69.137 A 18.628 18.628 0 0 0 32.715 69.19 Z" id="0" vector-effect="non-scaling-stroke" fill="#FFFFFF"></path>
<path d="M 105.762 16.504 L 103.564 16.602 Q 102.148 13.526 99.878 11.133 Q 97.607 8.74 94.8 7.08 A 24.09 24.09 0 0 0 88.867 4.566 Q 85.742 3.711 82.666 3.711 A 16.89 16.89 0 0 0 75.684 5.176 A 22.006 22.006 0 0 0 69.678 9.18 A 29.873 29.873 0 0 0 65.463 14.073 A 33.966 33.966 0 0 0 64.771 15.113 Q 62.598 18.506 61.108 22.339 A 45.227 45.227 0 0 0 58.838 30.274 A 43.279 43.279 0 0 0 58.069 37.302 A 39.441 39.441 0 0 0 58.057 38.281 Q 58.057 42.237 58.984 46.045 A 34.742 34.742 0 0 0 61.621 53.296 A 30.083 30.083 0 0 0 65.82 59.619 A 29.469 29.469 0 0 0 71.387 64.624 A 25.42 25.42 0 0 0 78.125 67.92 A 25.112 25.112 0 0 0 85.25 69.085 A 28.359 28.359 0 0 0 85.889 69.092 A 33.254 33.254 0 0 0 88.968 68.956 Q 90.546 68.809 91.927 68.503 A 19.53 19.53 0 0 0 92.432 68.384 Q 95.17 67.699 97.2 66.673 A 16.401 16.401 0 0 0 97.339 66.602 A 18.803 18.803 0 0 0 99.236 65.482 A 13.947 13.947 0 0 0 100.83 64.234 Q 102.246 62.94 103.174 61.768 Q 103.845 60.92 104.273 60.213 A 8.519 8.519 0 0 0 104.565 59.693 Q 105.004 58.839 105.246 58.531 A 1.493 1.493 0 0 1 105.273 58.496 L 104.492 65.381 A 11.37 11.37 0 0 1 102.888 67.109 Q 102.051 67.85 101.001 68.53 A 23.221 23.221 0 0 1 98.303 70.023 A 30.552 30.552 0 0 1 95.801 71.07 A 33.438 33.438 0 0 1 92.031 72.202 A 41.945 41.945 0 0 1 89.185 72.779 Q 85.547 73.389 81.494 73.389 A 50.006 50.006 0 0 1 71.069 72.315 A 46.909 46.909 0 0 1 62.13 69.485 A 43.468 43.468 0 0 1 61.572 69.238 Q 57.129 67.237 53.442 64.282 A 33.654 33.654 0 0 1 47.095 57.617 A 30.932 30.932 0 0 1 42.92 49.414 A 30.267 30.267 0 0 1 41.408 41.382 A 34.772 34.772 0 0 1 41.357 39.795 A 43.357 43.357 0 0 1 42.209 31.838 A 34.789 34.789 0 0 1 44.116 25.562 A 37.124 37.124 0 0 1 49.776 16.038 A 34.673 34.673 0 0 1 51.099 14.527 A 38.473 38.473 0 0 1 61.279 6.714 Q 67.09 3.613 73.682 2.1 Q 77.148 1.27 81.641 1.026 Q 86.133 0.781 90.674 0.781 A 361.841 361.841 0 0 1 94.94 0.806 A 300.585 300.585 0 0 1 98.95 0.879 Q 102.832 0.977 105.469 0.977 Q 105.007 2.949 104.78 4.543 A 27.247 27.247 0 0 0 104.712 5.054 A 29.745 29.745 0 0 0 104.526 7.144 A 24.129 24.129 0 0 0 104.492 8.399 A 24.861 24.861 0 0 0 104.613 10.896 A 20.158 20.158 0 0 0 104.834 12.476 A 43.435 43.435 0 0 0 105.296 14.676 A 54.616 54.616 0 0 0 105.762 16.504 Z" id="1" vector-effect="non-scaling-stroke" fill="#FFFFFF"></path>
<path d="M 114.844 35.987 Q 114.844 31.934 115.967 27.661 A 35.907 35.907 0 0 1 119.287 19.409 A 38.912 38.912 0 0 1 124.53 12.112 A 42.952 42.952 0 0 1 124.731 11.89 A 35.796 35.796 0 0 1 132.202 5.713 A 36.953 36.953 0 0 1 139.569 2.208 A 42.837 42.837 0 0 1 141.65 1.538 A 37.865 37.865 0 0 1 149.25 0.15 A 45.368 45.368 0 0 1 152.979 0 A 49.213 49.213 0 0 1 159.748 0.448 A 39.974 39.974 0 0 1 164.575 1.416 A 40.866 40.866 0 0 1 171.231 3.804 A 35.173 35.173 0 0 1 174.146 5.322 A 33.713 33.713 0 0 1 181.665 11.231 A 35.234 35.234 0 0 1 187.085 18.628 A 35.059 35.059 0 0 1 190.356 27.051 Q 191.455 31.494 191.455 35.987 A 35.732 35.732 0 0 1 190.359 44.669 A 36.668 36.668 0 0 1 190.356 44.678 Q 189.258 49.072 187.085 53.174 A 38.467 38.467 0 0 1 181.665 60.889 A 35.294 35.294 0 0 1 174.146 67.188 A 37.097 37.097 0 0 1 166.685 70.755 A 43.056 43.056 0 0 1 164.575 71.436 A 38.176 38.176 0 0 1 157.191 72.814 A 46.886 46.886 0 0 1 152.979 72.998 A 43.752 43.752 0 0 1 145.959 72.456 A 36.067 36.067 0 0 1 141.553 71.46 A 38.159 38.159 0 0 1 134.314 68.526 A 33.95 33.95 0 0 1 132.104 67.237 A 35.273 35.273 0 0 1 124.658 60.938 A 39.831 39.831 0 0 1 119.238 53.223 Q 117.041 49.121 115.942 44.702 A 36.215 36.215 0 0 1 114.848 36.524 A 33.704 33.704 0 0 1 114.844 35.987 Z M 131.641 35.791 Q 131.641 39.942 132.104 43.994 A 50.705 50.705 0 0 0 133.346 50.806 A 46.282 46.282 0 0 0 133.594 51.734 A 36.068 36.068 0 0 0 135.663 57.37 A 32.437 32.437 0 0 0 136.255 58.57 Q 137.891 61.719 140.234 64.063 A 17.841 17.841 0 0 0 145.654 67.774 A 16.261 16.261 0 0 0 150.042 68.999 A 20.716 20.716 0 0 0 152.637 69.19 A 18.936 18.936 0 0 0 156.909 68.725 A 15.873 15.873 0 0 0 159.717 67.798 Q 162.891 66.406 165.332 64.014 A 23.321 23.321 0 0 0 169.081 59.191 A 26.479 26.479 0 0 0 169.531 58.399 A 39.727 39.727 0 0 0 172.461 51.538 A 45.724 45.724 0 0 0 174.194 43.97 A 66.682 66.682 0 0 0 174.85 36.397 A 61.694 61.694 0 0 0 174.854 36.28 Q 174.854 32.422 174.39 28.516 A 45.953 45.953 0 0 0 172.876 21.021 A 35.611 35.611 0 0 0 170.269 14.503 A 33.151 33.151 0 0 0 170.166 14.307 Q 168.506 11.182 166.113 8.863 A 17.782 17.782 0 0 0 160.596 5.225 A 16.538 16.538 0 0 0 156.403 4.1 A 21.537 21.537 0 0 0 153.467 3.906 A 22.354 22.354 0 0 0 149.653 4.218 A 17.408 17.408 0 0 0 146.46 5.078 A 17.583 17.583 0 0 0 140.942 8.399 A 21.133 21.133 0 0 0 136.792 13.477 A 29.912 29.912 0 0 0 134.535 18.228 A 34.672 34.672 0 0 0 133.936 19.971 A 45.732 45.732 0 0 0 132.481 26.053 A 51.69 51.69 0 0 0 132.251 27.539 Q 131.689 31.543 131.641 35.791 Z" id="2" vector-effect="non-scaling-stroke" fill="#FFFFFF"></path>
<path d="M 200.146 2.783 L 200.146 0.977 L 224.658 0.977 L 261.621 45.899 L 261.621 9.18 A 5.99 5.99 0 0 0 261.507 8.043 A 8.018 8.018 0 0 0 261.255 7.08 Q 260.889 5.957 259.937 5.005 A 5.897 5.897 0 0 0 258.888 4.182 Q 258.206 3.755 257.324 3.418 A 8.383 8.383 0 0 0 255.942 3.031 Q 254.675 2.783 253.027 2.783 L 253.027 0.977 L 274.658 0.977 L 274.658 2.783 Q 272.896 2.783 271.575 3.025 A 9.014 9.014 0 0 0 270.313 3.345 Q 268.869 3.833 267.961 4.616 A 4.834 4.834 0 0 0 267.7 4.859 A 5.045 5.045 0 0 0 266.647 6.366 A 4.763 4.763 0 0 0 266.406 7.031 A 9.398 9.398 0 0 0 266.071 9.238 A 10.698 10.698 0 0 0 266.064 9.619 L 266.064 70.996 L 261.621 70.996 L 213.135 12.5 L 213.135 62.403 A 7.024 7.024 0 0 0 213.214 63.428 Q 213.288 63.931 213.433 64.478 A 11.426 11.426 0 0 0 213.452 64.551 A 5.23 5.23 0 0 0 214.252 66.218 A 6.466 6.466 0 0 0 214.673 66.748 A 5.55 5.55 0 0 0 215.691 67.64 Q 216.197 67.989 216.827 68.288 A 10.511 10.511 0 0 0 217.261 68.482 Q 218.481 68.994 220.276 69.136 A 18.529 18.529 0 0 0 221.729 69.19 L 221.729 70.996 L 200.146 70.996 L 200.146 69.19 A 20.466 20.466 0 0 0 201.847 69.123 Q 202.693 69.053 203.412 68.906 A 9.043 9.043 0 0 0 204.468 68.628 A 9.073 9.073 0 0 0 205.628 68.155 Q 206.234 67.855 206.705 67.487 A 4.872 4.872 0 0 0 207.104 67.139 A 4.75 4.75 0 0 0 208.398 64.99 A 9.398 9.398 0 0 0 208.733 62.784 A 10.698 10.698 0 0 0 208.74 62.403 L 208.74 7.178 A 29.658 29.658 0 0 0 207.889 6.258 Q 207.202 5.548 206.592 5.03 Q 205.615 4.199 204.614 3.687 A 7.459 7.459 0 0 0 202.539 2.979 A 11.754 11.754 0 0 0 201.329 2.826 A 15.608 15.608 0 0 0 200.146 2.783 Z" id="3" vector-effect="non-scaling-stroke" fill="#FFFFFF"></path>
</g></svg>